<?xml version="1.0" encoding="utf-8"?>
<!-- Generator: Adobe Illustrator 21.1.0, SVG Export Plug-In . SVG Version: 6.00 Build 0)  -->
<svg version="1.1" id="Layer_1" xmlns="http://www.w3.org/2000/svg" xmlns:xlink="http://www.w3.org/1999/xlink" x="0px" y="0px"
	 viewBox="0 0 314.6 319.1" style="enable-background:new 0 0 314.6 319.1;" xml:space="preserve">
<style type="text/css">
	.st0{fill:#F0822B;}
	.st1{fill:#19A856;}
</style>
<path class="st0" d="M288.1,165.2h-15.4H163.6v29h104.1c-14.4,45.8-57.2,79.1-107.7,79.1c-62.3,0-112.9-50.5-112.9-112.9
	S97.7,47.5,160,47.5c37.2,0,70.1,18,90.7,45.7h36.4C263,47.6,215.1,16.6,160,16.6C80.6,16.6,16.3,81,16.3,160.4
	S80.6,304.1,160,304.1c77.8,0,141.1-61.8,143.7-139H288.1z"/>
<path class="st1" d="M292.7,105.2h-13.2h-21h-13.8c-18-27.6-49.2-45.9-84.7-45.9c-55.8,0-101.1,45.3-101.1,101.1
	c0,55.8,45.3,101.1,101.1,101.1c41.1,0,76.5-24.6,92.3-59.8H220c-13.1,19.1-35.1,31.6-60,31.6c-40.2,0-72.9-32.6-72.9-72.9
	c0-40.2,32.6-72.9,72.9-72.9c29.5,0,54.8,17.5,66.3,42.7h30.2v0h12.2h10.7h21C298.7,121.7,296.1,113.3,292.7,105.2z"/>
</svg>
